<?xml version="1.0" encoding="UTF-8"?><svg id="_レイヤー_2" xmlns="http://www.w3.org/2000/svg" viewBox="0 0 346.16 73"><defs><style>.cls-1{fill:#fff;}.cls-2{fill:#666;}.cls-3{fill:#b3b3b3;}</style></defs><g id="_デザイン"><path class="cls-1" d="M104.73,19.03c0-2.47.47-4.81,1.41-7.03.94-2.21,2.25-4.17,3.93-5.88,1.68-1.71,3.62-3.05,5.83-4.03,2.21-.98,4.59-1.46,7.13-1.46s4.86.49,7.08,1.46c2.21.98,4.17,2.32,5.88,4.03,1.71,1.71,3.04,3.67,4,5.88.96,2.21,1.44,4.56,1.44,7.03s-.48,4.91-1.44,7.13c-.96,2.21-2.29,4.16-4,5.83-1.71,1.68-3.67,2.98-5.88,3.93-2.21.94-4.57,1.41-7.08,1.41s-4.91-.47-7.13-1.41c-2.21-.94-4.16-2.25-5.83-3.93-1.68-1.68-2.99-3.62-3.93-5.83-.94-2.21-1.41-4.59-1.41-7.13M112.05,19.03c0,1.59.28,3.08.85,4.47.57,1.38,1.37,2.6,2.39,3.66,1.02,1.06,2.21,1.88,3.56,2.47,1.35.59,2.82.88,4.42.88s2.95-.29,4.27-.88c1.32-.59,2.46-1.41,3.44-2.47.98-1.06,1.74-2.28,2.29-3.66.55-1.38.83-2.87.83-4.47s-.29-3.14-.85-4.54c-.57-1.4-1.35-2.63-2.34-3.69-.99-1.06-2.16-1.88-3.49-2.46-1.33-.59-2.78-.88-4.34-.88s-3.01.29-4.34.88c-1.33.59-2.51,1.41-3.51,2.46-1.01,1.06-1.79,2.29-2.34,3.69-.55,1.4-.83,2.91-.83,4.54"/><path class="cls-1" d="M146.31,19.03c0-2.47.47-4.81,1.42-7.03.94-2.21,2.25-4.17,3.93-5.88,1.68-1.71,3.62-3.05,5.83-4.03,2.21-.98,4.59-1.46,7.13-1.46s4.86.49,7.08,1.46c2.21.98,4.17,2.32,5.88,4.03,1.71,1.71,3.04,3.67,4,5.88.96,2.21,1.44,4.56,1.44,7.03s-.48,4.91-1.44,7.13c-.96,2.21-2.29,4.16-4,5.83-1.71,1.68-3.67,2.98-5.88,3.93-2.21.94-4.57,1.41-7.08,1.41s-4.91-.47-7.13-1.41c-2.21-.94-4.16-2.25-5.83-3.93-1.68-1.68-2.99-3.62-3.93-5.83-.94-2.21-1.42-4.59-1.42-7.13M153.63,19.03c0,1.59.28,3.08.85,4.47.57,1.38,1.37,2.6,2.39,3.66,1.02,1.06,2.21,1.88,3.56,2.47,1.35.59,2.82.88,4.42.88s2.95-.29,4.27-.88c1.32-.59,2.46-1.41,3.44-2.47.98-1.06,1.74-2.28,2.29-3.66.55-1.38.83-2.87.83-4.47s-.29-3.14-.85-4.54c-.57-1.4-1.35-2.63-2.34-3.69-.99-1.06-2.16-1.88-3.49-2.46-1.33-.59-2.78-.88-4.34-.88s-3.01.29-4.34.88c-1.33.59-2.51,1.41-3.51,2.46-1.01,1.06-1.79,2.29-2.34,3.69-.55,1.4-.83,2.91-.83,4.54"/><polygon class="cls-1" points="186.67 1.02 210.88 1.02 210.88 7.85 202.14 7.85 202.14 36.94 195.07 36.94 195.07 7.85 186.67 7.85 186.67 1.02"/><path class="cls-1" d="M213.56,19.03c0-2.47.47-4.81,1.42-7.03.94-2.21,2.25-4.17,3.93-5.88,1.68-1.71,3.62-3.05,5.83-4.03,2.21-.98,4.59-1.46,7.13-1.46s4.86.49,7.08,1.46c2.21.98,4.17,2.32,5.88,4.03,1.71,1.71,3.04,3.67,4,5.88.96,2.21,1.44,4.56,1.44,7.03s-.48,4.91-1.44,7.13c-.96,2.21-2.29,4.16-4,5.83-1.71,1.68-3.67,2.98-5.88,3.93-2.21.94-4.57,1.41-7.08,1.41s-4.91-.47-7.13-1.41c-2.21-.94-4.16-2.25-5.83-3.93-1.68-1.68-2.99-3.62-3.93-5.83-.94-2.21-1.42-4.59-1.42-7.13M220.88,19.03c0,1.59.28,3.08.85,4.47.57,1.38,1.37,2.6,2.39,3.66,1.02,1.06,2.21,1.88,3.56,2.47,1.35.59,2.82.88,4.42.88s2.95-.29,4.27-.88c1.32-.59,2.46-1.41,3.44-2.47.98-1.06,1.74-2.28,2.29-3.66.55-1.38.83-2.87.83-4.47s-.29-3.14-.85-4.54c-.57-1.4-1.35-2.63-2.34-3.69-.99-1.06-2.16-1.88-3.49-2.46-1.33-.59-2.78-.88-4.34-.88s-3.01.29-4.34.88c-1.33.59-2.51,1.41-3.51,2.46-1.01,1.06-1.79,2.29-2.34,3.69-.55,1.4-.83,2.91-.83,4.54"/><path class="cls-1" d="M267.25,1.02c2.96,0,5.47.5,7.52,1.49,2.05.99,3.61,2.39,4.69,4.2,1.07,1.81,1.61,3.95,1.61,6.42,0,1.46-.22,2.94-.66,4.42-.44,1.48-1.14,2.82-2.1,4.03-.96,1.2-2.25,2.17-3.86,2.9-1.61.73-3.59,1.1-5.93,1.1h-5.08v11.37h-7.08V1.02h10.88ZM268.47,18.69c1.07,0,1.97-.19,2.68-.56.71-.37,1.28-.85,1.68-1.42.41-.57.7-1.16.88-1.78.18-.62.27-1.15.27-1.61,0-.36-.06-.84-.17-1.44-.11-.6-.35-1.21-.71-1.83-.36-.62-.9-1.14-1.64-1.56-.73-.42-1.72-.63-2.95-.63h-5.08v10.83h5.03Z"/><path class="cls-1" d="M293.75,23.66c0,1.14.34,2.23,1.02,3.27.68,1.04,1.59,1.89,2.71,2.54,1.12.65,2.35.98,3.69.98,1.46,0,2.76-.33,3.9-.98,1.14-.65,2.04-1.5,2.71-2.54.67-1.04,1-2.13,1-3.27V1.02h6.98v22.79c0,2.63-.65,4.97-1.95,7-1.3,2.03-3.06,3.63-5.27,4.78-2.21,1.15-4.67,1.73-7.37,1.73s-5.1-.58-7.3-1.73c-2.2-1.15-3.95-2.75-5.25-4.78-1.3-2.03-1.95-4.37-1.95-7V1.02h7.08v22.65Z"/><path class="cls-1" d="M343.48,9.71c-1.37-.75-2.76-1.37-4.17-1.85-1.42-.49-2.74-.73-3.98-.73-1.53,0-2.73.31-3.61.93-.88.62-1.32,1.55-1.32,2.78,0,.85.33,1.6,1,2.27.67.67,1.53,1.26,2.59,1.78,1.06.52,2.16.99,3.29,1.42,1.04.39,2.07.85,3.1,1.39,1.02.54,1.94,1.2,2.76,2,.81.8,1.46,1.79,1.95,2.98.49,1.19.73,2.64.73,4.37,0,1.82-.47,3.51-1.42,5.08-.94,1.56-2.33,2.82-4.15,3.78-1.82.96-4.07,1.44-6.74,1.44-1.37,0-2.76-.14-4.17-.42-1.42-.28-2.81-.7-4.17-1.27-1.37-.57-2.68-1.29-3.95-2.17l3.12-5.52c.85.62,1.76,1.16,2.76,1.63.99.47,1.99.84,3,1.1,1.01.26,1.94.39,2.78.39s1.7-.12,2.56-.37c.86-.24,1.58-.66,2.15-1.24.57-.59.85-1.4.85-2.44,0-.72-.24-1.37-.71-1.95-.47-.59-1.11-1.12-1.9-1.61-.8-.49-1.67-.91-2.61-1.27-1.11-.42-2.25-.91-3.42-1.46-1.17-.55-2.27-1.23-3.29-2.03-1.02-.8-1.85-1.79-2.49-2.98-.63-1.19-.95-2.64-.95-4.37,0-2.08.46-3.89,1.39-5.42.93-1.53,2.24-2.74,3.93-3.64,1.69-.89,3.64-1.39,5.86-1.49,2.9,0,5.25.34,7.05,1.03,1.81.68,3.42,1.5,4.86,2.44l-2.68,5.42Z"/><path class="cls-1" d="M147.16,55.45c0,.69-.21,1.19-.69,1.68-.54.54-.95.69-1.71.69h-1.47c-.88,0-1.23-.25-1.68-.69-.59-.61-.69-1.02-.69-1.68v-4.26c0-.69.21-1.2.69-1.68.55-.54.95-.71,1.71-.71h1.47c.88,0,1.23.26,1.67.71.61.59.71,1,.71,1.68v4.26ZM141.89,55.59c0,.25.05.42.31.73.06.07.15.15.22.22.17.17.31.28.72.28.5,0,1.12.01,1.81,0,.33,0,.46-.04.72-.28.07-.07.16-.15.22-.22.26-.3.3-.43.3-.72v-4.58c-.01-.25-.05-.41-.31-.72-.06-.09-.15-.15-.22-.22-.17-.17-.31-.3-.72-.3-.51,0-1.11-.01-1.81,0-.33.01-.46.05-.72.3-.07.06-.16.14-.22.22-.26.3-.3.42-.3.72v4.57Z"/><path class="cls-1" d="M152.57,50.99c.83.01,1.16.19,1.68.71.46.46.69.84.69,1.67v2.04c0,.89-.26,1.21-.69,1.68-.61.62-.95.69-1.68.69h-1.91v2.46c0,.27-.21.49-.48.49s-.49-.22-.49-.52v-8.21c0-.56.47-1.03,1.05-1.03h1.83ZM153.45,52.26c-.25-.23-.38-.3-.72-.3h-2.07v4.84h2.06c.25,0,.45-.04.72-.3.06-.07.16-.16.24-.23.23-.29.3-.45.3-.72v-2.35c0-.25-.05-.46-.3-.72-.07-.06-.15-.15-.22-.22"/><path class="cls-1" d="M161.55,50.98c.58,0,1.05.47,1.05,1.05v1.75c-.01.58-.48,1.05-1.06,1.05h-3.32v.73c0,.33.05.46.3.72.07.07.15.15.22.22.25.24.43.3.72.3h2.15v-.58c0-.27.22-.49.49-.49s.49.22.49.49v.51c-.01.58-.48,1.05-1.06,1.05h-1.92c-.84,0-1.1-.11-1.68-.69-.47-.47-.69-.68-.69-1.68v-2.04c0-.84.14-1.13.69-1.68.48-.48.79-.69,1.68-.69h1.93ZM158.22,53.85h3.39v-1.89h-2.15c-.29,0-.43.05-.72.3-.07.07-.15.16-.22.22-.23.24-.3.37-.3.72v.66Z"/><path class="cls-1" d="M166.44,51.97v5.5c0,.27-.22.5-.49.5s-.48-.22-.48-.5v-5.42c0-.63.48-1.05,1.05-1.05h1.72c.94,0,1.16.17,1.68.69.47.47.69.8.69,1.68v4.1c0,.27-.21.48-.48.48s-.5-.21-.5-.48v-4.26c0-.27-.02-.45-.3-.72-.07-.07-.15-.15-.22-.22-.19-.19-.31-.3-.72-.3h-1.96Z"/><path class="cls-1" d="M186.01,54.83c0,.26-.22.48-.5.48h-.87c-.02.63-.23,1.36-.69,1.82-.54.54-.95.69-1.71.69h-1.46c-.88,0-1.24-.25-1.68-.69-.61-.61-.71-1.02-.71-1.68v-4.26c0-.69.21-1.2.69-1.68.54-.54.95-.71,1.71-.71h1.47c.88,0,1.24.26,1.68.71.59.59.69,1,.69,1.68v3.15h.87c.27,0,.5.22.5.49M183.67,55.31h-2.08c-.27,0-.49-.22-.49-.48s.22-.49.49-.49h2.08v-3.31c0-.25-.05-.41-.31-.72-.06-.09-.15-.15-.22-.22-.17-.17-.31-.3-.72-.3-.49,0-1.11-.01-1.81,0-.33.01-.46.05-.72.3-.07.06-.16.14-.22.22-.25.3-.3.42-.3.72v4.57c0,.25.05.42.31.73.06.07.15.15.22.22.17.17.31.28.72.28.51,0,1.11.01,1.81,0,.33,0,.46-.04.72-.28.07-.07.16-.15.22-.22.26-.3.3-.43.3-.72v-.3Z"/><path class="cls-1" d="M189.39,51.25v4.32c0,.4.09.51.3.72l.22.22c.26.25.43.3.72.3.25,0,.51.01.75,0,.35-.01.53-.11.72-.3.07-.07.15-.15.22-.22.21-.22.3-.35.3-.72v-4.32c0-.27.22-.48.5-.48s.48.21.48.48v4.16c0,.79-.17,1.16-.69,1.68-.56.56-.84.69-1.65.69h-.47c-.68,0-1.09-.1-1.68-.69-.57-.57-.69-.78-.69-1.68v-4.16c0-.27.22-.48.49-.48s.48.21.48.48"/><path class="cls-1" d="M200.92,53.06v-1.09h-3.64c-.26,0-.48-.22-.48-.49s.22-.5.48-.5h3.57c.58,0,1.05.48,1.05,1.05v4.69c0,.58-.47,1.05-1.05,1.05h-1.94c-.66,0-1.16-.15-1.72-.71-.51-.51-.68-.82-.68-1.65s.17-1.15.68-1.65c.57-.57.97-.72,1.72-.72h2.02ZM197.99,56.5c.21.21.43.3.72.3h2.2v-2.75h-2.2c-.26,0-.51.09-.72.3-.07.06-.15.15-.22.22-.21.21-.3.37-.3.72v.27c0,.31.05.47.3.72.07.07.15.15.22.22"/><path class="cls-1" d="M205.61,51.97v5.5c0,.27-.22.5-.49.5s-.48-.22-.48-.5v-5.42c0-.63.48-1.05,1.05-1.05h1.72c.94,0,1.16.17,1.68.69.47.47.69.8.69,1.68v4.1c0,.27-.21.48-.48.48s-.5-.21-.5-.48v-4.26c0-.27-.02-.45-.3-.72-.07-.07-.15-.15-.22-.22-.19-.19-.31-.3-.72-.3h-1.96Z"/><path class="cls-1" d="M214.78,51h1.19c.26,0,.48.22.48.48s-.22.49-.48.49h-1.19v4.83h1.09c.27,0,.48.21.48.48s-.21.49-.48.49h-1.02c-.58,0-1.05-.48-1.05-1.06v-4.74h-.69c-.27,0-.49-.22-.49-.49s.22-.48.49-.48h.69v-1.06c0-.27.21-.5.48-.5s.49.22.49.5v1.06Z"/><path class="cls-1" d="M220.12,51.25v4.32c0,.4.09.51.3.72l.22.22c.26.25.43.3.72.3.25,0,.51.01.75,0,.35-.01.53-.11.72-.3.07-.07.15-.15.22-.22.21-.22.3-.35.3-.72v-4.32c0-.27.22-.48.5-.48s.48.21.48.48v4.16c0,.79-.17,1.16-.69,1.68-.56.56-.84.69-1.65.69h-.47c-.68,0-1.09-.1-1.68-.69-.57-.57-.69-.78-.69-1.68v-4.16c0-.27.22-.48.49-.48s.48.21.48.48"/><path class="cls-1" d="M232.09,51.97v5.54c0,.27-.21.48-.48.48s-.5-.21-.5-.48v-4.14c0-.31-.1-.52-.3-.71-.11-.12-.25-.26-.37-.38-.19-.17-.4-.31-.72-.31h-1.21v5.54c0,.27-.22.48-.5.48s-.48-.22-.48-.48v-5.45c0-.58.47-1.08,1.05-1.08h1.18c.51,0,.99.22,1.35.58,0-.33.27-.57.61-.57h1.55c.88-.01,1.14.16,1.68.69.66.64.69.95.69,1.68v4.14c0,.27-.22.48-.5.48s-.5-.21-.5-.48v-4.3c0-.36-.06-.46-.3-.72-.06-.07-.15-.15-.22-.22-.19-.19-.38-.3-.72-.3h-1.32Z"/><path class="cls-1" d="M246.78,49.77v7.79c0,.26-.22.48-.48.48s-.49-.22-.49-.48v-7.79h-2.35c-.27,0-.49-.22-.49-.5s.22-.48.49-.48h5.7c.27,0,.49.21.49.48s-.22.5-.49.5h-2.37Z"/><path class="cls-1" d="M253.67,50.99c.76,0,1.14.15,1.68.69.55.54.71.93.71,1.68v2.06c0,.92-.21,1.19-.71,1.68-.54.54-.99.69-1.68.69h-.76c-.67,0-1.11-.12-1.67-.69-.51-.51-.71-.82-.71-1.68v-2.06c0-.92.15-1.13.71-1.68.52-.52.97-.69,1.67-.69h.76ZM255.06,53.2c0-.35-.1-.48-.3-.72-.06-.07-.15-.15-.22-.22-.25-.25-.35-.29-.72-.3h-1.07c-.35,0-.46.06-.72.3-.09.07-.15.15-.22.22-.24.23-.3.4-.3.72v2.38c0,.28.01.43.3.72.07.06.15.15.22.22.21.21.48.3.72.3h1.07c.38,0,.46-.04.72-.3.07-.07.15-.16.22-.22.24-.23.3-.42.3-.72v-2.38Z"/><path class="cls-1" d="M261.54,50.99c.76,0,1.14.15,1.68.69.55.54.71.93.71,1.68v2.06c0,.92-.21,1.19-.71,1.68-.54.54-.99.69-1.68.69h-.76c-.67,0-1.11-.12-1.67-.69-.51-.51-.71-.82-.71-1.68v-2.06c0-.92.15-1.13.71-1.68.52-.52.97-.69,1.67-.69h.76ZM262.94,53.2c0-.35-.1-.48-.3-.72-.06-.07-.15-.15-.22-.22-.25-.25-.35-.29-.72-.3h-1.07c-.35,0-.46.06-.72.3-.09.07-.15.15-.22.22-.24.23-.3.4-.3.72v2.38c0,.28.01.43.3.72.07.06.15.15.22.22.21.21.48.3.72.3h1.07c.38,0,.46-.04.72-.3.07-.07.15-.16.22-.22.24-.23.3-.42.3-.72v-2.38Z"/><path class="cls-1" d="M267.16,49.08c0-.27.22-.5.49-.5s.5.22.5.5v8.41c0,.27-.22.48-.5.48s-.49-.21-.49-.48v-8.41Z"/><path class="cls-1" d="M275.66,50.99c.58,0,1.05.47,1.05,1.05v.94c0,.27-.21.5-.48.5s-.5-.22-.5-.5v-1.02h-2.03c-.26,0-.46.04-.72.3-.07.07-.15.15-.22.22-.2.19-.3.45-.3.72v2.35c0,.35.1.52.3.72.07.07.14.15.22.22.24.21.37.3.72.3.59-.01,1.52,0,2.03,0v-1.24c0-.27.22-.49.5-.49s.48.22.48.49v1.18c0,.58-.47,1.04-1.05,1.04h-1.81c-.69,0-1.11-.14-1.68-.69-.47-.47-.69-.75-.69-1.68v-2.03c0-.86.27-1.26.69-1.68.58-.58,1.02-.69,1.68-.69h1.81Z"/><path class="cls-1" d="M282.29,50.99c.79,0,1.11.12,1.68.69.54.54.69.97.69,1.67v4.12c0,.27-.22.5-.5.5s-.48-.22-.48-.5c0-.98.02-3.29,0-4.27-.01-.31-.1-.5-.3-.72-.07-.07-.15-.15-.22-.22-.2-.2-.38-.3-.72-.3h-1.92v5.51c0,.27-.22.5-.5.5s-.49-.22-.49-.5v-8.38c0-.27.22-.5.49-.5s.5.22.5.5v1.89h1.76Z"/><path class="cls-1" d="M291.58,53.06v-1.09h-3.64c-.26,0-.48-.22-.48-.49s.22-.5.48-.5h3.57c.58,0,1.05.48,1.05,1.05v4.69c0,.58-.47,1.05-1.05,1.05h-1.94c-.66,0-1.16-.15-1.72-.71-.51-.51-.68-.82-.68-1.65s.17-1.15.68-1.65c.57-.57.97-.72,1.72-.72h2.02ZM288.66,56.5c.21.21.43.3.72.3h2.2v-2.75h-2.2c-.26,0-.51.09-.72.3-.07.06-.15.15-.22.22-.21.21-.3.37-.3.72v.27c0,.31.05.47.3.72.07.07.15.15.22.22"/><path class="cls-1" d="M296.52,49.45c0,.27-.22.5-.5.5s-.49-.22-.49-.5v-1.05c0-.27.22-.5.49-.5s.5.22.5.5v1.05ZM295.53,51.36c0-.27.22-.5.49-.5s.5.22.5.5v6.12c0,.27-.22.5-.5.5s-.49-.22-.49-.5v-6.12Z"/><path class="cls-1" d="M300.83,51.97v5.5c0,.27-.22.5-.49.5s-.48-.22-.48-.5v-5.42c0-.63.48-1.05,1.05-1.05h1.72c.94,0,1.16.17,1.68.69.47.47.69.8.69,1.68v4.1c0,.27-.21.48-.48.48s-.5-.21-.5-.48v-4.26c0-.27-.02-.45-.3-.72-.07-.07-.15-.15-.22-.22-.19-.19-.31-.3-.72-.3h-1.96Z"/><path class="cls-1" d="M150.83,65.93h1.28c.27,0,.5.21.5.48s-.22.5-.5.5h-1.28v5.55c0,.27-.22.5-.49.5s-.48-.22-.48-.5v-5.55h-.97c-.27,0-.5-.22-.5-.5s.22-.48.5-.48h.97v-1.2c0-.58.47-1.05,1.05-1.05h1.08c.27-.01.49.21.49.48s-.22.48-.49.48h-1.15v1.29Z"/><path class="cls-1" d="M157.95,65.92c.76,0,1.14.15,1.68.69.55.54.71.93.71,1.68v2.06c0,.92-.21,1.19-.71,1.68-.54.55-.99.69-1.68.69h-.76c-.67,0-1.11-.12-1.67-.69-.51-.51-.71-.82-.71-1.68v-2.06c0-.92.15-1.13.71-1.68.52-.52.97-.69,1.67-.69h.76ZM159.35,68.13c0-.35-.1-.48-.3-.72-.06-.07-.15-.15-.22-.22-.25-.25-.35-.29-.72-.3h-1.07c-.35,0-.46.06-.72.3-.09.07-.15.15-.22.22-.24.23-.3.4-.3.72v2.38c0,.29.01.43.3.72.07.06.15.15.22.22.21.21.48.3.72.3h1.07c.38,0,.46-.04.72-.3.07-.07.15-.16.22-.22.24-.23.3-.42.3-.72v-2.38Z"/><path class="cls-1" d="M164.23,68.7v3.73c0,.26-.22.48-.5.48s-.48-.22-.48-.48v-6.18c0-.27.21-.48.48-.48s.5.21.5.48v1.06l.87-.87c.54-.55.59-.58,1.42-.58.27,0,.5.22.5.5s-.22.49-.5.49h-.45l-1.84,1.85Z"/><path class="cls-1" d="M179.74,70.37c0,.69-.21,1.19-.69,1.68-.54.54-.95.69-1.71.69h-1.47c-.88,0-1.23-.25-1.68-.69-.59-.61-.69-1.02-.69-1.68v-4.26c0-.69.21-1.2.69-1.68.55-.54.95-.71,1.71-.71h1.47c.88,0,1.23.26,1.67.71.61.59.71,1,.71,1.68v4.26ZM174.46,70.52c0,.25.05.42.31.73.06.07.15.15.22.22.17.17.31.29.72.29.5,0,1.11.01,1.81,0,.33,0,.46-.04.72-.29.07-.07.16-.15.22-.22.26-.3.3-.43.3-.72v-4.58c-.01-.25-.05-.41-.31-.72-.06-.09-.15-.15-.22-.22-.17-.17-.31-.3-.72-.3-.51,0-1.11-.01-1.81,0-.33.01-.46.05-.72.3-.07.06-.16.14-.22.22-.26.3-.3.42-.3.72v4.57Z"/><path class="cls-1" d="M183.69,69.02v3.49c0,.26-.21.48-.48.48s-.5-.22-.5-.48v-7.74c0-.58.47-1.05,1.05-1.05h2.58c.93,0,1.24.26,1.67.71.58.57.71.95.71,1.67v.53c0,.9-.17,1.19-.71,1.68-.49.48-.84.71-1.67.71h-2.65ZM187.2,65.01c-.21-.22-.4-.3-.72-.3h-2.8v3.32h2.8c.32,0,.52-.1.72-.3.07-.07.16-.15.22-.22.22-.22.3-.45.3-.72v-.84c0-.27-.1-.53-.3-.72-.07-.07-.15-.15-.22-.22"/><path class="cls-1" d="M195.42,65.9c.58,0,1.05.47,1.05,1.05v1.75c-.01.58-.48,1.05-1.06,1.05h-3.32v.73c0,.33.05.46.3.72.07.07.15.15.22.22.25.24.43.3.72.3h2.15v-.58c0-.27.22-.5.49-.5s.49.22.49.5v.51c-.01.58-.48,1.05-1.06,1.05h-1.92c-.84,0-1.1-.11-1.68-.69-.47-.47-.69-.68-.69-1.68v-2.04c0-.84.14-1.13.69-1.68.48-.48.79-.69,1.68-.69h1.93ZM192.09,68.78h3.39v-1.89h-2.15c-.29,0-.43.05-.72.3-.07.07-.15.16-.22.22-.23.24-.3.37-.3.72v.66Z"/><path class="cls-1" d="M200.76,68.7v3.73c0,.26-.22.48-.5.48s-.48-.22-.48-.48v-6.18c0-.27.21-.48.48-.48s.5.21.5.48v1.06l.87-.87c.54-.55.59-.58,1.42-.58.27,0,.5.22.5.5s-.22.49-.5.49h-.45l-1.84,1.85Z"/><path class="cls-1" d="M210.44,67.98v-1.09h-3.64c-.26,0-.48-.22-.48-.5s.22-.5.48-.5h3.57c.58,0,1.05.48,1.05,1.05v4.69c0,.58-.47,1.05-1.05,1.05h-1.94c-.66,0-1.16-.15-1.72-.71-.51-.51-.68-.82-.68-1.65s.17-1.15.68-1.65c.57-.57.97-.72,1.72-.72h2.02ZM207.52,71.43c.21.21.43.3.72.3h2.2v-2.75h-2.2c-.26,0-.51.09-.72.3-.07.06-.15.15-.22.22-.21.21-.3.37-.3.72v.27c0,.31.05.47.3.72.07.07.15.15.22.22"/><path class="cls-1" d="M216.25,65.93h1.19c.26,0,.48.22.48.48,0,.27-.22.5-.48.5h-1.19v4.83h1.09c.27,0,.48.21.48.48s-.21.5-.48.5h-1.02c-.58,0-1.05-.48-1.05-1.06v-4.74h-.69c-.27,0-.49-.22-.49-.5s.22-.48.49-.48h.69v-1.06c0-.27.21-.5.48-.5s.49.22.49.5v1.06Z"/><path class="cls-1" d="M223.46,65.92c.76,0,1.14.15,1.68.69.55.54.71.93.71,1.68v2.06c0,.92-.21,1.19-.71,1.68-.54.55-.99.69-1.68.69h-.76c-.67,0-1.11-.12-1.67-.69-.51-.51-.71-.82-.71-1.68v-2.06c0-.92.15-1.13.71-1.68.52-.52.97-.69,1.67-.69h.76ZM224.86,68.13c0-.35-.1-.48-.3-.72-.06-.07-.15-.15-.22-.22-.25-.25-.35-.29-.72-.3h-1.07c-.35,0-.46.06-.72.3-.09.07-.15.15-.22.22-.24.23-.3.4-.3.72v2.38c0,.29.01.43.3.72.07.06.15.15.22.22.21.21.48.3.72.3h1.07c.38,0,.46-.04.72-.3.07-.07.15-.16.22-.22.24-.23.3-.42.3-.72v-2.38Z"/><path class="cls-1" d="M229.74,68.7v3.73c0,.26-.22.48-.5.48s-.48-.22-.48-.48v-6.18c0-.27.21-.48.48-.48s.5.21.5.48v1.06l.87-.87c.54-.55.59-.58,1.42-.58.27,0,.5.22.5.5s-.22.49-.5.49h-.45l-1.84,1.85Z"/><path class="cls-1" d="M239.31,71.22c0,.4-.16.78-.45,1.06-.28.28-.67.43-1.06.43h-1.55c-.51,0-.72-.09-1.08-.43-.3-.31-.43-.52-.43-1.06v-.62c0-.27.21-.48.48-.48s.5.21.5.48v.62c0,.17,0,.21.16.37.09.1.22.15.37.15h1.55c.16,0,.24-.01.37-.15.14-.14.15-.24.15-.37v-.51c0-.33-.07-.45-.4-.54l-2.13-.68c-.58-.17-1.02-.69-1.02-1.36v-.69c-.01-.56.15-.78.43-1.06.31-.31.54-.45,1.06-.45h1.55c.58,0,.75.12,1.08.45.33.33.43.56.43,1.06v.54c0,.27-.21.48-.48.48s-.5-.21-.5-.48v-.54c.01-.19-.06-.27-.16-.37-.09-.11-.2-.16-.41-.16h-1.5c-.16,0-.24.01-.38.16-.11.11-.15.19-.15.37v.58c0,.33.11.46.4.54l2.14.69c.61.17,1.02.73,1.02,1.35v.62Z"/><path class="cls-1" d="M253.89,71.17c-.15.22-.46.29-.68.14l-1.03-.61c.01.42.03.63-.36,1.08l-.21.21c-.56.56-.98.74-1.81.74h-1c-.73,0-1.11-.14-1.68-.69-.67-.68-.69-.95-.69-1.68v-.12c0-.94.38-1.28.92-1.58l.93-.53-.69-.45c-.68-.45-.88-.69-.88-1.63v-.19c0-.61.09-1,.63-1.55.42-.42.82-.61,1.6-.61h.83c.81,0,1.16.22,1.58.64.57.57.62.94.62,1.51v.21c-.01.63-.07,1.08-.93,1.57-.29.16-.59.35-.93.53l1.18.75.43.27.76-.69c.27-.26.61-.31.8-.12.25.21.16.56-.06.77l-.68.58,1.21.77c.22.15.28.45.15.68M251.28,70.08l-2.08-1.4c-.56.32-1.08.66-1.42.85-.26.15-.36.3-.36.63v.35c0,.26.1.52.3.72.06.06.15.15.22.22.19.19.45.32.72.32h1.37c.27,0,.49-.12.71-.3.12-.1.19-.17.26-.25.3-.35.28-.48.28-.72v-.43ZM249.23,67.59l1.39-.83c.17-.1.36-.3.36-.66v-.33c0-.3.01-.41-.25-.75-.03-.02-.07-.09-.11-.12-.16-.17-.43-.26-.78-.26h-1.04c-.2,0-.54.05-.79.3-.02.02-.06.06-.09.09-.15.15-.25.45-.23.75v.37c0,.35.11.49.36.64l1.19.8Z"/><path class="cls-1" d="M266.73,70.36c0,.85-.16,1.15-.71,1.68-.46.47-.83.69-1.67.69h-1.42c-.61,0-1.11-.14-1.68-.69-.55-.55-.69-.72-.69-1.68v-6.4c0-.27.22-.5.5-.5s.48.22.48.5v6.56c0,.38.07.48.3.72.07.07.16.15.22.22.22.21.42.29.73.3.64.02,1.15.02,1.72-.01.36-.03.48-.07.71-.29.07-.07.17-.15.23-.22.26-.31.3-.45.3-.72v-6.56c0-.27.22-.5.5-.5s.49.22.49.5v6.4Z"/><path class="cls-1" d="M275.41,70.36c0,.87-.17,1.1-.69,1.68-.59.66-.93.69-1.68.69h-1.03c-.8-.01-1.11-.14-1.68-.69-.47-.47-.69-.68-.69-1.68v-.84c0-.27.21-.5.48-.5s.5.22.5.5v.99c0,.41.1.53.3.72.07.07.15.16.22.22.19.2.45.31.72.31.46,0,.89.01,1.35,0,.35-.01.46-.1.72-.31.07-.06.16-.14.22-.22.27-.32.28-.41.3-.72.01-.24,0-.63,0-.93,0-.25-.16-.47-.4-.54l-3.33-.81c-.61-.19-1-.74-1-1.36v-.79c0-.79.09-1.08.69-1.67.57-.58.87-.68,1.68-.68h.94c.89,0,1.16.17,1.67.69.48.48.72.81.71,1.68v.62c0,.27-.22.5-.5.5s-.49-.22-.49-.5c0-.16.01-.62,0-.78,0-.36-.1-.53-.3-.72-.07-.07-.15-.15-.22-.22-.22-.22-.4-.3-.72-.3h-1.25c-.36,0-.43.01-.72.3-.07.07-.15.15-.22.22-.19.19-.28.32-.3.72-.01.17,0,.61,0,.82,0,.35.15.47.4.56l3.33.83c.61.19,1,.74,1,1.36v.85Z"/><path class="cls-1" d="M282.53,65.9c.58,0,1.05.47,1.05,1.05v1.75c-.01.58-.48,1.05-1.06,1.05h-3.32v.73c0,.33.05.46.3.72.07.07.15.15.22.22.25.24.43.3.72.3h2.15v-.58c0-.27.22-.5.49-.5s.49.22.49.5v.51c-.01.58-.48,1.05-1.06,1.05h-1.92c-.84,0-1.1-.11-1.68-.69-.47-.47-.69-.68-.69-1.68v-2.04c0-.84.14-1.13.69-1.68.48-.48.79-.69,1.68-.69h1.93ZM279.2,68.78h3.39v-1.89h-2.15c-.29,0-.43.05-.72.3-.07.07-.15.16-.22.22-.23.24-.3.37-.3.72v.66Z"/><path class="cls-1" d="M287.86,68.7v3.73c0,.26-.22.48-.5.48s-.48-.22-.48-.48v-6.18c0-.27.21-.48.48-.48s.5.21.5.48v1.06l.87-.87c.54-.55.59-.58,1.42-.58.27,0,.5.22.5.5s-.22.49-.5.49h-.45l-1.84,1.85Z"/><path class="cls-1" d="M297.43,71.22c0,.4-.16.78-.45,1.06-.28.28-.67.43-1.06.43h-1.55c-.51,0-.72-.09-1.08-.43-.3-.31-.43-.52-.43-1.06v-.62c0-.27.21-.48.48-.48s.5.21.5.48v.62c0,.17,0,.21.16.37.09.1.22.15.37.15h1.55c.16,0,.24-.01.37-.15.14-.14.15-.24.15-.37v-.51c0-.33-.07-.45-.4-.54l-2.13-.68c-.58-.17-1.02-.69-1.02-1.36v-.69c-.01-.56.15-.78.43-1.06.31-.31.54-.45,1.06-.45h1.55c.58,0,.75.12,1.08.45.33.33.43.56.43,1.06v.54c0,.27-.21.48-.48.48s-.5-.21-.5-.48v-.54c.01-.19-.06-.27-.16-.37-.09-.11-.2-.16-.41-.16h-1.5c-.16,0-.24.01-.38.16-.11.11-.15.19-.15.37v.58c0,.33.11.46.4.54l2.14.69c.61.17,1.02.73,1.02,1.35v.62Z"/><rect class="cls-1" x="170.19" y="21.18" width="6.83" height="17.5" transform="translate(29.69 131.52) rotate(-45)"/><path class="cls-2" d="M36.94,37.23s0-.02,0-.03c0-.05-.01-.11,0-.17h0c0-.06,0-.12,0-.18,0-.11,0-.24-.02-.34,0-.06-.01-.11-.01-.16-.31-2.28-2.24-2.28-4.47-1.32-.65,1.09-1.88,2.03-4.14,2.53-1.94,1.61-3.59,3.87-3.82,4.18-.02.02-.02.04-.02.04-1.79,2.54-5.1,3.58-7.99,2.23-1.15-.53-2.06-1.37-2.7-2.36-.15.34-.27.7-.35,1.08-.79,3.45,1.37,6.89,4.82,7.68,3.11.71,6.13-1,7.34-3.86,0,0,0-.02.02-.04.16-.38,1.44-3.23,3.14-5.24,0,0,.01-.02.02-.02.09-.11.19-.21.28-.32.02-.02.03-.03.05-.05.05-.05.1-.11.15-.16h-.02c2.71-2.9,6.25-5.28,7.39-2.09.01.05.03.1.05.16.03.1.07.22.09.33.02.05.03.11.04.17h0c.01.07.02.12.05.16,0,.01,0,.02,0,.03.01.05.03.11.04.16.06-.64.08-1.28.07-1.9,0-.17,0-.34,0-.5"/><path class="cls-2" d="M51.64,49.46c0,.06-.02.12-.03.18-.26,1.34-.96,3.07-2.33,5.31-.02.04-.05.08-.08.13-.04,2.57.91,5.06,1.59,6.43,1.58,3.17.29,7.02-2.87,8.6-.02.01-.05.02-.07.03.03.02.06.03.09.04,2.1.9,4.62.65,6.53-.88,2.76-2.21,3.21-6.25,1-9.01-1.72-2.15-5.08-7.7-1.52-12.19.05-.06.09-.11.14-.17-.88.39-1.62.85-2.22,1.35-.08.07-.16.14-.24.21"/><path class="cls-2" d="M31.31,21.99s.06-.03.1-.05c.07-.03.14-.07.21-.11.02,0,.05-.02.07-.04,2.42-1.35,3.83-3.5,4.58-5.52,0,0,0-.01,0-.01,3.23-8.46,11.41-14.49,21-14.51,3.18,0,6.2.65,8.94,1.83C61.38.47,55.34-.8,49.27.51c-9.38,2.04-16.11,9.64-17.49,18.6,0,0,0,0,0,.01-.15.99-.43,2.05-.9,3.08.12-.05.23-.11.34-.16.02-.02.05-.03.09-.05"/><path class="cls-2" d="M13.34,35.49c.18-.38.39-.73.62-1.06,1.49-2.04,4.06-3.02,6.52-2.49.12.03.24.05.35.09,0,0,0,0,0,0,5.26-3.34,11.45-5.24,12.15-.31.02.12.04.23.07.33,0,.13,0,.25,0,.38.22-.17.42-.36.59-.56.55-.64.86-1.4,1.05-2.18.04-.16.07-.33.1-.49,0-.1,0-.21,0-.34.23-3.23-2.43-4.13-5.93-3.75-.14.13-.28.26-.43.39-.02.02-.04.04-.06.05-.06.05-.12.1-.19.15-.03.02-.06.05-.08.07-.03.02-.05.04-.07.06-2.31,1.83-5.82,3.34-10.74,3.53-.07,0-.14,0-.21,0-.24.16-.47.32-.69.48-1.27.94-2.81,2.62-2.81,2.62-2.32,2.12-5.87,2.52-8.66.75-1.19-.75-2.08-1.79-2.64-2.97-.81.75-1.46,1.69-1.86,2.8-1.37,3.73.54,7.85,4.27,9.22,3.05,1.12,6.38.03,8.23-2.45-.36-1.39-.25-2.91.4-4.31"/><path class="cls-2" d="M46.13,44.91c-.18-.01-.36-.02-.53-.03-3.63-.14-6.52.96-8.77,2.63-.01.05-.03.1-.04.14-.71,2.17-2.15,4.26-4.68,5.98-1.14,2.53-1.65,5.08-1.92,7.16,0,.03,0,.07-.02.1h0c-.61,3.92-3.99,6.92-8.08,6.93-.97,0-1.89-.16-2.75-.48,1.39,3.76,5.37,6.02,9.4,5.15,3.99-.87,6.67-4.51,6.44-8.46h0s0-.07,0-.11c-.26-3.33-.22-7.93,2.17-12.26,1.84-3.06,4.86-5.71,9.56-6.54.02,0,.05,0,.07-.01-.4-.13-.72-.18-.84-.2h0Z"/><path class="cls-3" d="M19.63,37.75c.14,0,.28,0,.42.01h0s.13,0,.13,0h0l.17.02c3.37.3,5.88.2,7.72-.19.07-.02.14-.03.21-.05.11-.1.23-.19.35-.28,0,0,.02-.01.02-.02.11-.08.23-.17.34-.25.02-.02.04-.03.06-.04.06-.04.11-.08.17-.12h-.02c1.04-.72,2.16-1.38,3.21-1.82.03-.04.05-.08.07-.13.4-.74.55-1.55.57-2.36,0-.04,0-.08,0-.13-.91.71-2.27,1.17-4.3,1.15-1.89,0-4.35-.43-7.59-1.44l-.16-.05s0,0,0,0l-.12-.04h0s-.03,0-.05-.01c-2.18,1.39-4.28,2.97-5.63,4.51-1.04,1.19-2.19,3.15-2.19,3.15-.02.04-.05.07-.08.11.17.66.44,1.28.8,1.85,0-.03.02-.07.04-.1,1.03-2.31,3.33-3.8,5.85-3.8"/><path class="cls-3" d="M45.48,68.29c-1.99-2.49-1.82-6.01.25-8.3h0c1.46-1.86,2.6-3.5,3.48-4.92.03-1.98.64-4.01,2.44-5.61.79-4.58-3.7-4.45-4.2-4.42h0c-.15.02-.31.05-.46.07,1.38.44,3.75,1.72,2.27,5.17-.54,1.26-1.58,2.8-3.39,4.7-1.17,1.24-2.66,2.63-4.53,4.19h0c-2.5,1.81-3.41,5.21-1.99,8.07.49.98,1.2,1.77,2.03,2.36,1.85,1.31,4.32,1.6,6.5.54-.9-.4-1.72-1.02-2.39-1.84"/><path class="cls-3" d="M73.3,8.43c-2.02-2.04-4.42-3.69-7.09-4.84.04.02.08.05.12.07,4.78,3.12,8.39,8.06,9.7,14.08,2.49,11.46-4.24,22.77-15.21,26.23-.06.03-.13.05-.21.07,0,0-.01,0-.02,0-.18.06-.37.1-.55.15-1.18.38-2.7,1.17-2.91,1.27-1.31.75-2.3,1.57-3.03,2.43.44-.2.91-.38,1.42-.54.23-.06,1.88-.51,3.11-.63.19-.01.38-.02.57-.03h.02c.08,0,.16-.01.22-.02,11.45-1.08,20.4-10.72,20.38-22.44-.01-6.16-2.5-11.74-6.52-15.8"/><path class="cls-3" d="M22.72,57.53s.98-.69,2.75-1.08c.6-.13,1.2-.28,1.78-.47,1.87-.63,3.42-1.39,4.69-2.24.05-.04.11-.07.16-.11.67-1.49,1.57-2.99,2.77-4.37.59-.63,1.24-1.22,1.95-1.75.82-2.57.64-5.24.11-7.55-.02-.11-.05-.22-.07-.33-.17,1.88-.66,3.83-1.7,5.6-1.18,2.01-3.07,3.78-6.02,4.93-1.43.56-3.1.98-5.06,1.2-.61.07-1.23.08-1.84.09-1.82,0-2.91.47-2.91.47-3.18,1.12-5.46,4.16-5.45,7.72,0,.39.03.79.09,1.17.44,3.04,2.54,5.54,5.36,6.53-.13-.36-.24-.74-.33-1.12-.75-3.48.83-6.93,3.71-8.69"/><path class="cls-3" d="M8.32,28.4h0s4.24.73,8.78.94c1.59-1.03,3.66-1.97,5.77-2.75,2.04-.75,4.14-1.31,6.01-1.5.89-.88,1.53-1.87,1.99-2.88-2.62,1.2-6.25,1.85-10.9,1.03-4.48-1.16-8.58-2.81-8.58-2.81h0c-2.04-.8-4.31-.59-6.16.46-.99.57-1.86,1.37-2.52,2.41-1.37,2.17-1.44,4.78-.41,6.94.03-.03.06-.06.09-.08,1.59-1.41,3.76-2.09,5.93-1.74"/><path class="cls-1" d="M57.14,45.48c.21-.11,1.73-.89,2.91-1.27.18-.05.37-.1.55-.15,0,0,.01,0,.02,0,.08-.02.15-.04.21-.07,10.97-3.45,17.7-14.76,15.21-26.23-1.3-6.02-4.91-10.96-9.7-14.08-.04-.02-.08-.05-.12-.07-2.74-1.18-5.76-1.84-8.94-1.83-9.6.02-17.78,6.04-21,14.51,0,0,0,0,0,.01-.75,2.01-2.16,4.17-4.58,5.52-.02.01-.05.03-.07.04-.07.04-.14.07-.21.11-.04.02-.07.03-.1.05-.03.02-.06.03-.09.05-.11.06-.23.11-.34.16-.46,1.02-1.11,2-1.99,2.88,3.5-.37,6.16.52,5.93,3.75-.01.12,0,.23,0,.34-.03.16-.07.33-.1.49-.19.78-.5,1.54-1.05,2.18-.17.2-.37.39-.59.56,0,.04,0,.08,0,.13-.02.8-.17,1.61-.57,2.36-.02.04-.05.08-.07.13,2.23-.95,4.16-.95,4.47,1.32,0,.06,0,.11.01.16.01.11.02.23.02.34,0,.06,0,.12,0,.18h0c0,.07,0,.12,0,.17,0,.01,0,.02,0,.03,0,.17,0,.33,0,.5,0,.62-.02,1.25-.07,1.9.02.11.05.22.07.33.52,2.31.7,4.98-.11,7.55,2.25-1.68,5.15-2.77,8.77-2.63.17,0,.35.02.53.03h0c.11.02.43.08.84.21.15-.02.3-.05.46-.07h0c.5-.03,4.99-.16,4.2,4.42.08-.07.16-.14.24-.21.61-.5,1.35-.96,2.22-1.35,0,0,0,0,0,0,.73-.86,1.72-1.68,3.03-2.43M74.61,15.46c.59,0,1.07,1.7,1.07,3.79s-.48,3.8-1.07,3.8-1.07-1.7-1.07-3.8.48-3.79,1.07-3.79M70.17,10.02c.72,0,1.31,2.1,1.31,4.69s-.59,4.69-1.31,4.69-1.31-2.1-1.31-4.69.59-4.69,1.31-4.69"/><path class="cls-1" d="M15.21,36.53c1.35-1.54,3.45-3.13,5.63-4.51-.12-.03-.24-.06-.35-.09-2.46-.53-5.03.45-6.52,2.49-.24.33-.45.68-.62,1.06-.65,1.4-.76,2.92-.4,4.31.02-.03.05-.07.08-.11,0,0,1.15-1.96,2.19-3.15"/><path class="cls-1" d="M4.95,33.2c2.79,1.76,6.34,1.36,8.66-.75,0,0,1.54-1.68,2.81-2.62.22-.16.45-.32.69-.48-4.54-.21-8.78-.94-8.78-.94h0c-2.17-.35-4.34.33-5.93,1.74-.03.03-.06.05-.09.08.57,1.18,1.46,2.22,2.64,2.97"/><path class="cls-1" d="M50.8,61.5c-.68-1.36-1.63-3.85-1.59-6.43-.88,1.42-2.02,3.06-3.48,4.92h0c-2.07,2.29-2.24,5.81-.25,8.31.66.82,1.49,1.44,2.39,1.84.02,0,.05-.02.07-.03,3.16-1.58,4.45-5.43,2.87-8.6"/><path class="cls-1" d="M16.44,44.01c2.9,1.35,6.2.31,7.99-2.23,0,0,0-.01.02-.04.23-.31,1.88-2.58,3.82-4.18-.07.02-.14.03-.21.05-1.85.39-4.35.49-7.72.19l-.17-.02h-.13s0,0,0,0c-.14,0-.28-.01-.42-.01-2.52,0-4.82,1.49-5.85,3.8-.01.03-.03.06-.04.1.63.99,1.55,1.83,2.7,2.36"/><path class="cls-1" d="M30.17,60.9h0s0-.07.02-.11c.28-2.08.78-4.63,1.92-7.16-.05.04-.11.07-.16.11-1.28.85-2.82,1.6-4.69,2.24-.58.2-1.18.34-1.78.47-1.77.39-2.75,1.08-2.75,1.08-2.87,1.76-4.46,5.21-3.71,8.69.09.39.2.76.33,1.12.86.31,1.79.48,2.75.48,4.09,0,7.47-3.01,8.08-6.92"/></g></svg>