<?xml version="1.0" encoding="UTF-8"?><svg id="_レイヤー_2" xmlns="http://www.w3.org/2000/svg" viewBox="0 0 1203.36 209.76"><defs><style>.cls-1{fill:#fff;}</style></defs><g id="_デザイン"><path class="cls-1" d="M154.56,83.04c0,56.4-36.72,83.04-77.28,83.04S0,139.44,0,83.04,36.96,0,77.28,0s77.28,26.64,77.28,83.04ZM77.28,151.44c20.4,0,28.08-27.12,28.08-68.4s-7.68-68.64-28.08-68.64-28.08,27.6-28.08,68.64,7.68,68.4,28.08,68.4Z"/><path class="cls-1" d="M335.52,83.04c0,56.4-36.72,83.04-77.28,83.04s-77.28-26.64-77.28-83.04S217.92,0,258.24,0s77.28,26.64,77.28,83.04ZM258.24,151.44c20.4,0,28.08-27.12,28.08-68.4s-7.68-68.64-28.08-68.64-28.08,27.6-28.08,68.64,7.68,68.4,28.08,68.4ZM234.96,157.92v-4.32h45.12c-3.84,21.84,6.24,36,23.28,36,4.8,0,11.52-.48,16.8-2.88l6.24,15.36c-7.92,5.28-20.4,7.68-34.56,7.68-36.48,0-56.88-20.64-56.88-51.84Z"/><path class="cls-1" d="M369.84,18.96l19.92-14.16-5.76,45.36h-22.56l.48-45.36h144.72l.24,45.36h-22.32l-5.76-45.36,19.68,14.16h-128.64ZM440.16,143.52l37.2,3.6v14.16h-86.16v-14.16l36.24-3.6h12.72ZM410.4,79.2c0-24.72,0-49.68-.72-74.4h48.96c-.72,24.24-.72,49.2-.72,74.4v7.44c0,24.96,0,49.92.72,74.64h-48.96c.72-24.24.72-49.2.72-74.4v-7.68Z"/><path class="cls-1" d="M687.36,83.04c0,56.4-36.72,83.04-77.28,83.04s-77.28-26.64-77.28-83.04S569.76,0,610.08,0s77.28,26.64,77.28,83.04ZM610.08,151.44c20.4,0,28.08-27.12,28.08-68.4s-7.68-68.64-28.08-68.64-28.08,27.6-28.08,68.64,7.68,68.4,28.08,68.4Z"/><path class="cls-1" d="M717.6,18.96V4.8h40.56v17.76h-4.32l-36.24-3.6ZM767.28,143.52l36.24,3.6v14.16h-85.92v-14.16l36.24-3.6h13.44ZM734.4,79.2c0-24.72,0-49.68-.72-74.4h48.96c-.72,24.24-.72,49.2-.72,74.4v14.64c0,17.76,0,42.72.72,67.44h-48.96c.72-24.24.72-49.2.72-74.4v-7.68ZM786.24,102.24h-28.08v-14.4h27.12c18,0,28.08-14.4,28.08-36s-11.28-32.16-29.04-32.16h-26.16V4.8h24.96c54,0,73.68,18.48,73.68,47.28s-17.28,50.16-70.56,50.16Z"/><path class="cls-1" d="M887.76,18.96V4.8h82.56v14.16l-37.44,3.6h-7.68l-37.44-3.6ZM984,142.32c19.2,0,31.68-13.92,31.68-47.52V4.8h17.04v87.6c0,51.12-23.28,73.68-65.76,73.68-35.76,0-62.4-16.8-62.4-64.08v-26.16c0-23.28,0-47.28-.72-71.04h48.96c-.72,23.28-.72,47.28-.72,71.04v18.24c0,35.04,9.84,48.24,31.92,48.24ZM1020.24,20.64l-25.2-1.68V4.8h57.12v14.16l-24,1.68h-7.92Z"/><path class="cls-1" d="M1160.4,130.56c0-11.52-5.04-16.8-17.04-22.56l-10.56-5.04c-29.76-14.16-45.84-28.56-45.84-55.92,0-29.28,23.28-47.04,61.92-47.04,17.52,0,35.52,4.32,47.76,12l-2.16,34.56h-24.96l-5.52-36.24,20.88,6.48v12c-13.2-8.4-22.32-13.68-34.56-13.68s-21.6,8.4-21.6,19.68,6.72,17.52,19.68,23.76l12,5.76c30.24,14.4,42.96,27.36,42.96,52.32,0,28.32-20.88,49.44-65.04,49.44-18,0-39.36-3.36-54.24-12.48l1.44-36.48h25.44l6.24,39.6-19.68-5.52v-11.52c15.36,7.2,25.92,11.28,41.04,11.28s21.84-9.6,21.84-20.4Z"/></g></svg>