<?xml version="1.0" encoding="UTF-8"?><svg id="_レイヤー_2" xmlns="http://www.w3.org/2000/svg" viewBox="0 0 810.29 178.22"><defs><style>.cls-1{fill:#fff;}</style></defs><g id="_デザイン"><path class="cls-1" d="M0,17.78V4.5h74.03v13.28l-34.2,3.38h-7.42L0,17.78ZM39.83,134.55l34.2,3.38v13.28H0v-13.28l32.4-3.38h7.42ZM15.3,74.25c0-23.18,0-46.58-.67-69.75h45.9c-.68,22.73-.68,46.13-.68,69.75v6.98c0,23.4,0,46.8.68,69.98H14.63c.67-22.73.67-46.13.67-69.75v-7.2ZM37.58,82.8v-14.18h82.35v14.18H37.58ZM83.48,17.78V4.5h74.03v13.28l-33.53,3.38h-6.97l-33.53-3.38ZM123.98,134.55l33.53,3.38v13.28h-74.03v-13.28l33.53-3.38h6.97ZM97.65,74.25c0-23.18,0-46.58-.68-69.75h45.9c-.67,22.73-.67,46.13-.67,69.75v7.2c0,23.18,0,46.58.67,69.75h-45.9c.68-22.73.68-46.13.68-69.98v-6.98Z"/><path class="cls-1" d="M183.6,17.78V4.5h38.03v16.65h-4.05l-33.98-3.38ZM221.63,134.55v16.65h-38.03v-13.28l33.98-3.38h4.05ZM199.35,74.25c0-23.18,0-46.58-.67-69.75h45.9c-.67,22.73-.67,46.13-.67,69.75v6.98c0,23.4,0,46.8.67,69.98h-45.9c.67-22.73.67-46.13.67-69.75v-7.2ZM273.6,4.5l18.68,13.28h-70.65V4.5h78.08l1.58,38.25h-21.15l-6.53-38.25ZM270.68,82.35h-49.05v-14.4h49.05v14.4ZM305.78,112.95l-1.58,38.25h-82.58v-13.05h75.15l-18.68,13.05,6.53-38.25h21.15ZM263.93,72.45l3.38-20.7h14.17v46.58h-14.17l-3.38-21.83v-4.05Z"/><path class="cls-1" d="M334.57,17.78V4.5h78.53v13.28l-34.88,3.38h-9.67l-33.98-3.38ZM372.6,134.55v16.65h-38.03v-13.28l33.98-3.38h4.05ZM349.65,4.5h45.9c-.67,22.73-.67,46.13-.67,69.75v10.35c0,20.03,0,43.43.67,66.6h-45.9c.67-22.73.67-46.13.67-63.23v-13.73c0-23.18,0-46.58-.67-69.75ZM455.17,106.43l-2.25,44.78h-80.33v-13.5h72.9l-18.9,13.5,8.77-44.78h19.8Z"/><path class="cls-1" d="M477.22,17.78V4.5h78.53v13.28l-34.88,3.38h-9.67l-33.98-3.38ZM515.25,134.55v16.65h-38.03v-13.28l33.98-3.38h4.05ZM492.3,4.5h45.9c-.67,22.73-.67,46.13-.67,69.75v10.35c0,20.03,0,43.43.67,66.6h-45.9c.67-22.73.67-46.13.67-63.23v-13.73c0-23.18,0-46.58-.67-69.75ZM597.82,106.43l-2.25,44.78h-80.33v-13.5h72.9l-18.9,13.5,8.77-44.78h19.8Z"/><path class="cls-1" d="M764.77,77.85c0,52.88-34.43,77.85-72.45,77.85s-72.45-24.98-72.45-77.85S654.52,0,692.32,0s72.45,24.98,72.45,77.85ZM692.32,141.98c19.13,0,26.33-25.43,26.33-64.13s-7.2-64.35-26.33-64.35-26.33,25.88-26.33,64.35,7.2,64.13,26.33,64.13Z"/><path class="cls-1" d="M780.75,178.22l-1.96-6.44c10.08-5.46,15.4-12.74,18.76-19.32l4.9,4.62-10.64-5.04c-6.72-3.22-8.96-7.98-8.96-12.32,0-7.7,6.16-13.58,14-13.58,4.48,0,7.84.98,11.2,3.92,1.82,4.48,2.24,7.28,2.24,11.76,0,20.16-16.24,32.62-29.54,36.4Z"/></g></svg>