<?xml version="1.0" encoding="UTF-8"?><svg id="_レイヤー_2" xmlns="http://www.w3.org/2000/svg" viewBox="0 0 547.16 149.96"><defs><style>.cls-1{fill:#fff;}</style></defs><g id="_デザイン"><path class="cls-1" d="M0,13.57V0h77.97v13.57l-35.65,3.45h-7.59L0,13.57ZM42.32,132.94l35.65,3.45v13.57H0v-13.57l34.73-3.45h7.59ZM16.1,71.3c0-23.69,0-47.61-.69-71.3h46.92c-.69,23.23-.69,47.15-.69,71.3v7.13c0,23.92,0,47.84.69,71.53H15.41c.69-23.23.69-47.15.69-71.3v-7.36Z"/><path class="cls-1" d="M180.09,136.39l23.92-3.45h3.91l20.47,3.45v13.57h-48.3v-13.57ZM244.25,0h27.6l51.29,149.96h-46.23l-36.57-117.99,9.89-16.1-42.78,134.09h-14.72L244.25,0ZM220.33,94.07h62.1l5.75,14.49h-71.76l3.91-14.49ZM256.44,137.08l24.84-3.45h19.55l29.9,3.45v12.88h-74.29v-12.88Z"/><path class="cls-1" d="M350.29,136.39l27.83-3.45h7.36l22.77,3.45v13.57h-57.96v-13.57ZM353.04,0h33.81l.46,17.02h-4.14l-30.13-3.45V0ZM373.05,0h14.49l1.61,83.95v66.01h-16.1V0ZM374.89,0h46.23l35.65,101.89h-7.59L482.76,0h16.33l-50.37,149.96h-20.24L374.89,0ZM469.42,136.39l30.13-3.45h12.88l34.73,3.45v13.57h-77.74v-13.57ZM485.52,85.33l1.15-85.33h45.08c-.69,23.69-.69,47.61-.69,71.3v7.36c0,24.15,0,48.07.69,71.3h-46.92c.69-23.69.46-47.61.69-64.63ZM508.29,0h37.72v13.57l-33.58,3.45h-4.14V0Z"/></g></svg>