<?xml version="1.0" encoding="UTF-8"?>
<svg id="_レイヤー_1" xmlns="http://www.w3.org/2000/svg" version="1.1" viewBox="0 0 48 48">
  <!-- Generator: Adobe Illustrator 29.3.1, SVG Export Plug-In . SVG Version: 2.1.0 Build 151)  -->
  <defs>
    <style>
      .st0 {
        fill: #1f1fdd;
      }

      .st1 {
        fill: #fff;
      }

      .st2 {
        fill: #180d21;
      }

      .st3 {
        fill: #e21331;
      }
    </style>
  </defs>
  <circle class="st1" cx="24" cy="24" r="24"/>
  <path class="st3" d="M22.9,24.4h0v-.3c-.1-.9-.9-.9-1.7-.5-.2.4-.7.8-1.6,1-.8.6-1.4,1.5-1.5,1.6h0c-.7,1-2,1.4-3.1.9-.4-.2-.8-.5-1-.9,0,.1-.1.3-.1.4-.3,1.3.5,2.7,1.9,3,1.2.3,2.4-.4,2.8-1.5h0c0-.2.6-1.3,1.2-2.1h0s0,0,.1-.1h0s0,0,0,0h0c1-1.1,2.4-2,2.9-.8,0,0,0,0,0,0,0,0,0,0,0,.1,0,0,0,0,0,0h0s0,0,0,0h0s0,0,0,0c0-.2,0-.5,0-.7v-.2"/>
  <path class="st3" d="M28.5,29.1s0,0,0,0c-.1.5-.4,1.2-.9,2.1,0,0,0,0,0,0,0,1,.4,2,.6,2.5.6,1.2.1,2.7-1.1,3.3h0s0,0,0,0c.8.3,1.8.2,2.5-.3,1.1-.9,1.2-2.4.4-3.5-.7-.8-2-3-.6-4.7,0,0,0,0,0,0-.3.1-.6.3-.9.5,0,0,0,0,0,0"/>
  <path class="st3" d="M20.7,18.4h0s0,0,0,0c0,0,0,0,0,0,.9-.5,1.5-1.4,1.8-2.1h0c1.2-3.3,4.4-5.6,8.1-5.6,1.2,0,2.4.2,3.5.7-1.9-1.2-4.2-1.7-6.6-1.2-3.6.8-6.2,3.7-6.8,7.2h0c0,.4-.2.8-.4,1.2,0,0,0,0,.1,0,0,0,0,0,0,0"/>
  <path class="st3" d="M13.7,23.7c0-.1.1-.3.2-.4.6-.8,1.6-1.2,2.5-1,0,0,0,0,.1,0h0c2-1.3,4.4-2,4.7-.1,0,0,0,0,0,.1h0c0,0,.2,0,.2,0,.2-.2.3-.5.4-.9,0,0,0-.1,0-.2h0c0-1.4-.9-1.7-2.3-1.6,0,0-.1.1-.2.1,0,0,0,0,0,0,0,0,0,0,0,0,0,0,0,0,0,0,0,0,0,0,0,0-.9.7-2.2,1.3-4.2,1.4h0c0,0-.2.1-.3.2-.5.4-1.1,1-1.1,1-.9.8-2.3,1-3.4.3-.5-.3-.8-.7-1-1.1-.3.3-.6.7-.7,1.1-.5,1.4.2,3,1.6,3.6,1.2.4,2.5,0,3.2-1-.1-.5-.1-1.1.2-1.7"/>
  <path class="st3" d="M26.4,27.3c0,0-.1,0-.2,0-1.4,0-2.5.4-3.4,1,0,0,0,0,0,0-.3.8-.8,1.6-1.8,2.3-.4,1-.6,2-.8,2.8h0c-.2,1.6-1.5,2.7-3.1,2.7s-.7,0-1.1-.2c.5,1.5,2.1,2.3,3.6,2,1.5-.3,2.6-1.8,2.5-3.3h0c-.1-1.3,0-3.1.8-4.8.7-1.2,1.9-2.2,3.7-2.5h0c-.2,0-.3,0-.3,0h0Z"/>
  <path class="st0" d="M16.1,24.5h.3c1.3.1,2.3,0,3,0,0,0,0,0,0,0,0,0,0,0,.1-.1h0s0,0,.1-.1h0s0,0,0,0h0c.4-.3.8-.5,1.2-.7,0,0,0,0,0,0,.2-.3.2-.6.2-.9h0c-.4.2-.9.4-1.7.4s-1.7-.2-2.9-.6h0s0,0,0,0c0,0,0,0,0,0-.9.5-1.7,1.1-2.2,1.8-.4.5-.9,1.2-.9,1.2,0,0,0,0,0,0,0,.2.2.5.3.7,0,0,0,0,0,0,.4-.9,1.3-1.5,2.3-1.5"/>
  <path class="st0" d="M26.2,36.4c-.8-1-.7-2.3.1-3.2h0c.6-.7,1-1.4,1.4-1.9,0-.8.2-1.6.9-2.2.3-1.8-1.4-1.7-1.6-1.7h0c0,0-.1,0-.2,0,.5.2,1.5.7.9,2-.2.5-.6,1.1-1.3,1.8-.5.5-1,1-1.8,1.6h0c-1,.7-1.3,2-.8,3.1.2.4.5.7.8.9.7.5,1.7.6,2.5.2-.4-.2-.7-.4-.9-.7"/>
  <path class="st0" d="M36.9,13.2c-.8-.8-1.7-1.4-2.8-1.9,0,0,0,0,0,0,1.8,1.2,3.2,3.1,3.8,5.5,1,4.4-1.6,8.8-5.9,10.2,0,0,0,0,0,0h0c0,0-.1,0-.2,0-.5.1-1,.5-1.1.5-.5.3-.9.6-1.2.9.2,0,.4-.1.5-.2,0,0,.7-.2,1.2-.2,0,0,.1,0,.2,0h0c4.4-.4,7.9-4.1,7.9-8.7,0-2.4-1-4.6-2.5-6.1"/>
  <path class="st0" d="M17.3,32.2s.4-.3,1.1-.4c.2,0,.5-.1.7-.2.7-.2,1.3-.5,1.8-.9,0,0,0,0,0,0,.3-.6.6-1.2,1.1-1.7.2-.2.5-.5.8-.7.3-1,.2-2,0-2.9,0,0,0,0,0-.1,0,.7-.3,1.5-.7,2.2-.5.8-1.2,1.5-2.3,1.9-.5.2-1.2.4-2,.5-.2,0-.5,0-.7,0-.7,0-1.1.2-1.1.2-1.2.4-2.1,1.6-2.1,3,0,.2,0,.3,0,.5.2,1.2,1,2.2,2.1,2.5,0-.1,0-.3-.1-.4-.3-1.3.3-2.7,1.4-3.4"/>
  <path class="st0" d="M11.8,20.9h0s1.6.3,3.4.4c.6-.4,1.4-.8,2.2-1.1.8-.3,1.6-.5,2.3-.6.3-.3.6-.7.8-1.1-1,.5-2.4.7-4.2.4-1.7-.5-3.3-1.1-3.3-1.1h0c-.8-.3-1.7-.2-2.4.2-.4.2-.7.5-1,.9-.5.8-.6,1.9-.2,2.7,0,0,0,0,0,0,.6-.5,1.5-.8,2.3-.7"/>
  <path class="st2" d="M14.4,24.1c.5-.6,1.3-1.2,2.2-1.8,0,0,0,0-.1,0-.9-.2-1.9.2-2.5,1,0,.1-.2.3-.2.4-.2.5-.3,1.1-.2,1.7,0,0,0,0,0,0,0,0,.4-.8.9-1.2"/>
  <path class="st2" d="M10.4,22.8c1.1.7,2.4.5,3.4-.3,0,0,.6-.6,1.1-1,0,0,.2-.1.3-.2-1.8,0-3.4-.4-3.4-.4h0c-.8-.1-1.7.1-2.3.7,0,0,0,0,0,0,.2.5.6.9,1,1.1"/>
  <path class="st2" d="M30.7,27.5c0,0,.7-.4,1.1-.5,0,0,.1,0,.2,0h0s0,0,0,0c4.2-1.3,6.9-5.7,5.9-10.2-.5-2.3-1.9-4.2-3.8-5.5,0,0,0,0,0,0-1.1-.5-2.2-.7-3.5-.7-3.7,0-6.9,2.3-8.1,5.6h0c-.3.8-.8,1.6-1.8,2.1,0,0,0,0,0,0,0,0,0,0,0,0,0,0,0,0,0,0,0,0,0,0,0,0,0,0,0,0-.1,0-.2.4-.4.8-.8,1.1,1.4-.1,2.4.2,2.3,1.5h0c0,.2,0,.3,0,.3,0,.3-.2.6-.4.9,0,0-.1.1-.2.2h0c0,.4,0,.7-.2,1,0,0,0,0,0,0,.9-.4,1.6-.4,1.7.5v.3h0v.3c0,.2,0,.5,0,.7,0,0,0,0,0,.1.2.9.3,1.9,0,2.9.9-.6,2-1.1,3.4-1,0,0,.1,0,.2,0h0s.2,0,.3,0c0,0,.1,0,.2,0h0c.2,0,1.9,0,1.6,1.7,0,0,0,0,0,0,.2-.2.5-.4.9-.5h0c.3-.3.7-.6,1.2-.9M37.4,15.9c.2,0,.4.7.4,1.5s-.2,1.5-.4,1.5-.4-.7-.4-1.5.2-1.5.4-1.5M35.7,13.8c.3,0,.5.8.5,1.8s-.2,1.8-.5,1.8-.5-.8-.5-1.8.2-1.8.5-1.8"/>
  <path class="st2" d="M28.2,33.8c-.3-.5-.6-1.5-.6-2.5-.3.5-.8,1.2-1.4,1.9h0c-.8.9-.9,2.2-.1,3.2.3.3.6.6.9.7h0c1.2-.6,1.7-2.1,1.1-3.3"/>
  <path class="st2" d="M14.9,27c1.1.5,2.4.1,3.1-.9h0c0-.1.7-1,1.5-1.6,0,0,0,0,0,0-.7.1-1.7.2-3,0h-.3c-1,0-1.9.6-2.3,1.5,0,0,0,0,0,0,.2.4.6.7,1.1.9"/>
  <path class="st2" d="M20.2,33.5h0c.1-.9.3-1.8.8-2.8,0,0,0,0,0,0-.5.3-1.1.6-1.8.9-.2,0-.5.1-.7.2-.7.1-1.1.4-1.1.4-1.1.7-1.7,2-1.4,3.4,0,.2,0,.3.1.4.3.1.7.2,1.1.2,1.6,0,2.9-1.2,3.1-2.7"/>
</svg>